<?xml version="1.0" encoding="UTF-8" standalone="no" ?>
<!DOCTYPE svg PUBLIC "-//W3C//DTD SVG 1.1//EN" "http://www.w3.org/Graphics/SVG/1.1/DTD/svg11.dtd">
<svg xmlns="http://www.w3.org/2000/svg" xmlns:xlink="http://www.w3.org/1999/xlink" version="1.1" width="1280" height="1024" viewBox="0 0 1280 1024" xml:space="preserve">
<desc>Created with Fabric.js 5.3.0</desc>
<defs>
</defs>
<g transform="matrix(1 0 0 1 640 512)" id="background-logo"  >
<rect style="stroke: none; stroke-width: 0; stroke-dasharray: none; stroke-linecap: butt; stroke-dashoffset: 0; stroke-linejoin: miter; stroke-miterlimit: 4; fill: rgb(255,255,255); fill-rule: nonzero; opacity: 1;"  paint-order="stroke"  x="-640" y="-512" rx="0" ry="0" width="1280" height="1024" />
</g>
<g transform="matrix(2.2498046438758075 0 0 2.2498046438758075 639.1573886639676 310.33469277788436)" id="logo-logo"  >
<g style=""  paint-order="stroke"   >
		<g transform="matrix(1.0987782907881312 0 0 -1.0987782907881314 -1.7053026e-13 -78.51583983616374)"  >
<path style="stroke: none; stroke-width: 1; stroke-dasharray: none; stroke-linecap: butt; stroke-dashoffset: 0; stroke-linejoin: miter; stroke-miterlimit: 4; fill: rgb(21,91,131); fill-rule: nonzero; opacity: 1;"  paint-order="stroke"  transform=" translate(-11.853499999999999, 7.3580000000000005)" d="M 0 0 L 11.854 -17.723 L 23.707 0 L 13.405 -4.205 L 10.301 -4.205 Z M 15.267 -27.393 L 8.44 -27.393 L -14.289 6.591999999999999 L -9.324 12.677 L 11.854000000000001 4.032 L 33.031 12.677 L 37.995999999999995 6.592 z" stroke-linecap="round" />
</g>
		<g transform="matrix(1.0987782907881312 0 0 -1.0987782907881314 0.0002197556579517368 -101.13583911947367)"  >
<path style="stroke: none; stroke-width: 1; stroke-dasharray: none; stroke-linecap: butt; stroke-dashoffset: 0; stroke-linejoin: miter; stroke-miterlimit: 4; fill: rgb(21,91,131); fill-rule: nonzero; opacity: 1;"  paint-order="stroke"  transform=" translate(5.532, 0)" d="M 0 0 C 0 3.056 -2.477 5.532 -5.532 5.532 C -8.587 5.532 -11.064 3.056 -11.064 0 C -11.064 -3.056 -8.587 -5.532 -5.532 -5.532 C -2.477 -5.532 0 -3.056 0 0" stroke-linecap="round" />
</g>
		<g transform="matrix(1.0987782907881312 0 0 -1.0987782907881314 -1.7053026e-13 78.51638922530915)"  >
<path style="stroke: none; stroke-width: 1; stroke-dasharray: none; stroke-linecap: butt; stroke-dashoffset: 0; stroke-linejoin: miter; stroke-miterlimit: 4; fill: rgb(21,91,131); fill-rule: nonzero; opacity: 1;"  paint-order="stroke"  transform=" translate(11.853499999999997, -7.358500000000003)" d="M 0 0 L -11.854 17.723 L -23.707 0 L -13.405 4.205 L -10.300999999999998 4.205 z M -15.267 27.393 L -8.439 27.393 L 14.289000000000001 -6.591999999999999 L 9.324000000000002 -12.675999999999998 L -11.854 -4.030999999999999 L -33.031 -12.675999999999998 L -37.995999999999995 -6.591999999999999 z" stroke-linecap="round" />
</g>
		<g transform="matrix(1.0987782907881312 0 0 -1.0987782907881314 -0.00021975565817911047 101.13583911947367)"  >
<path style="stroke: none; stroke-width: 1; stroke-dasharray: none; stroke-linecap: butt; stroke-dashoffset: 0; stroke-linejoin: miter; stroke-miterlimit: 4; fill: rgb(21,91,131); fill-rule: nonzero; opacity: 1;"  paint-order="stroke"  transform=" translate(-5.532, -0.001000000000000334)" d="M 0 0 C 0 -3.055 2.477 -5.531 5.532 -5.531 C 8.587 -5.531 11.064 -3.0549999999999997 11.064 0 C 11.064 3.057 8.587 5.533 5.532 5.533 C 2.477 5.533 0 3.057 0 0" stroke-linecap="round" />
</g>
		<g transform="matrix(1.0987782907881312 0 0 -1.0987782907881314 78.51638922530896 2.842171e-14)"  >
<path style="stroke: none; stroke-width: 1; stroke-dasharray: none; stroke-linecap: butt; stroke-dashoffset: 0; stroke-linejoin: miter; stroke-miterlimit: 4; fill: rgb(21,91,131); fill-rule: nonzero; opacity: 1;"  paint-order="stroke"  transform=" translate(7.358499999999999, 11.8535)" d="M 0 0 L -17.723 -11.854 L 0 -23.707 L -4.205 -13.405 L -4.205 -10.300999999999998 z M -27.393 -15.267 L -27.393 -8.439 L 6.592 14.289 L 12.676 9.324 L 4.031 -11.854 L 12.676 -33.031 L 6.592 -37.996 Z" stroke-linecap="round" />
</g>
		<g transform="matrix(1.0987782907881312 0 0 -1.0987782907881314 101.1358391194737 0.00021975565820753218)"  >
<path style="stroke: none; stroke-width: 1; stroke-dasharray: none; stroke-linecap: butt; stroke-dashoffset: 0; stroke-linejoin: miter; stroke-miterlimit: 4; fill: rgb(21,91,131); fill-rule: nonzero; opacity: 1;"  paint-order="stroke"  transform=" translate(0.001000000000000334, -5.532)" d="M 0 0 C 3.055 0 5.531 2.477 5.531 5.532 C 5.531 8.587 3.0549999999999997 11.064 0 11.064 C -3.057 11.064 -5.533 8.587 -5.533 5.532 C -5.533 2.477 -3.057 0 0 0" stroke-linecap="round" />
</g>
		<g transform="matrix(1.0987782907881312 0 0 -1.0987782907881314 -78.51638922530935 8.526513e-14)"  >
<path style="stroke: none; stroke-width: 1; stroke-dasharray: none; stroke-linecap: butt; stroke-dashoffset: 0; stroke-linejoin: miter; stroke-miterlimit: 4; fill: rgb(21,91,131); fill-rule: nonzero; opacity: 1;"  paint-order="stroke"  transform=" translate(-7.358500000000003, -11.853499999999997)" d="M 0 0 L 17.723 11.854 L 0 23.707 L 4.205 13.405 L 4.205 10.301 Z M 27.393 15.267 L 27.393 8.439 L -6.591999999999999 -14.289000000000001 L -12.675999999999998 -9.324000000000002 L -4.030999999999999 11.854 L -12.675999999999998 33.031 L -6.591999999999999 37.995999999999995 z" stroke-linecap="round" />
</g>
		<g transform="matrix(1.0987782907881312 0 0 -1.0987782907881314 -101.1358391194737 -0.00021975565820753218)"  >
<path style="stroke: none; stroke-width: 1; stroke-dasharray: none; stroke-linecap: butt; stroke-dashoffset: 0; stroke-linejoin: miter; stroke-miterlimit: 4; fill: rgb(21,91,131); fill-rule: nonzero; opacity: 1;"  paint-order="stroke"  transform=" translate(-0.001000000000000334, 5.532)" d="M 0 0 C -3.055 0 -5.531 -2.477 -5.531 -5.532 C -5.531 -8.587 -3.0549999999999997 -11.064 0 -11.064 C 3.057 -11.064 5.533 -8.587 5.533 -5.532 C 5.533 -2.477 3.057 0 0 0" stroke-linecap="round" />
</g>
		<g transform="matrix(1.0987782907881312 0 0 -1.0987782907881314 62.42005641006648 -62.42082555487016)"  >
<path style="stroke: none; stroke-width: 1; stroke-dasharray: none; stroke-linecap: butt; stroke-dashoffset: 0; stroke-linejoin: miter; stroke-miterlimit: 4; fill: rgb(21,91,131); fill-rule: nonzero; opacity: 1;"  paint-order="stroke"  transform=" translate(-9.459000000000001, 7.303000000000004)" d="M 0 0 L -4.15 -20.913 L 16.762999999999998 -16.764 L 6.504999999999999 -12.451999999999998 L 4.309999999999999 -10.256999999999998 z M -8.575 -30.164 L -13.402 -25.337000000000003 L -5.443 14.764999999999993 L 2.37 15.557999999999993 L 11.232 -5.530000000000008 L 32.32 -14.393000000000008 L 31.528 -22.206000000000007 z" stroke-linecap="round" />
</g>
		<g transform="matrix(1.0987782907881312 0 0 -1.0987782907881314 71.51409493377446 -71.51311977996124)"  >
<path style="stroke: none; stroke-width: 1; stroke-dasharray: none; stroke-linecap: butt; stroke-dashoffset: 0; stroke-linejoin: miter; stroke-miterlimit: 4; fill: rgb(21,91,131); fill-rule: nonzero; opacity: 1;"  paint-order="stroke"  transform=" translate(3.911999999999999, -3.911312510848183)" d="M 0 0 C 2.16 2.16 2.16 5.663 0 7.823 C -2.16 9.983 -5.663 9.984 -7.824 7.823 C -9.984 5.663 -9.984 2.16 -7.824 0 C -5.663 -2.161 -2.1609999999999996 -2.161 0 0" stroke-linecap="round" />
</g>
		<g transform="matrix(1.0987782907881312 0 0 -1.0987782907881314 -62.42005641006671 62.42082555487005)"  >
<path style="stroke: none; stroke-width: 1; stroke-dasharray: none; stroke-linecap: butt; stroke-dashoffset: 0; stroke-linejoin: miter; stroke-miterlimit: 4; fill: rgb(21,91,131); fill-rule: nonzero; opacity: 1;"  paint-order="stroke"  transform=" translate(9.4585, -7.304)" d="M 0 0 L 4.15 20.913 L -16.762999999999998 16.764 L -6.504999999999999 12.451999999999998 L -4.309999999999999 10.256999999999998 z M 8.575 30.165 L 13.402 25.337 L 5.443 -14.764999999999997 L -2.37 -15.556999999999997 L -11.232 5.531000000000004 L -32.319 14.394000000000004 L -31.528000000000002 22.206000000000003 z" stroke-linecap="round" />
</g>
		<g transform="matrix(1.0987782907881312 0 0 -1.0987782907881314 -71.51430096662403 71.51362795300659)"  >
<path style="stroke: none; stroke-width: 1; stroke-dasharray: none; stroke-linecap: butt; stroke-dashoffset: 0; stroke-linejoin: miter; stroke-miterlimit: 4; fill: rgb(21,91,131); fill-rule: nonzero; opacity: 1;"  paint-order="stroke"  transform=" translate(-3.912312489151817, 3.9108750000050225)" d="M 0 0 C -2.16 -2.16 -2.16 -5.662 0.001 -7.823 C 2.161 -9.982 5.664000000000001 -9.983 7.824000000000001 -7.823 C 9.985000000000001 -5.662000000000001 9.984000000000002 -2.1590000000000007 7.825000000000001 0.0009999999999994458 C 5.664 2.161 2.162 2.161 0 0" stroke-linecap="round" />
</g>
		<g transform="matrix(1.0987782907881312 0 0 -1.0987782907881314 62.42137494401521 62.4206057992121)"  >
<path style="stroke: none; stroke-width: 1; stroke-dasharray: none; stroke-linecap: butt; stroke-dashoffset: 0; stroke-linejoin: miter; stroke-miterlimit: 4; fill: rgb(21,91,131); fill-rule: nonzero; opacity: 1;"  paint-order="stroke"  transform=" translate(7.303500000000003, 9.459499999999998)" d="M 0 0 L -20.913 4.149 L -16.764 -16.764 L -12.451999999999998 -6.506 L -10.256999999999998 -4.311 z M -30.164 8.574 L -25.337000000000003 13.401 L 14.764999999999993 5.442 L 15.556999999999993 -2.37 L -5.531000000000008 -11.232 L -14.394000000000007 -32.32 L -22.206000000000007 -31.528 z" stroke-linecap="round" />
</g>
		<g transform="matrix(1.0987782907881312 0 0 -1.0987782907881314 71.51362795300656 71.51416359549799)"  >
<path style="stroke: none; stroke-width: 1; stroke-dasharray: none; stroke-linecap: butt; stroke-dashoffset: 0; stroke-linejoin: miter; stroke-miterlimit: 4; fill: rgb(21,91,131); fill-rule: nonzero; opacity: 1;"  paint-order="stroke"  transform=" translate(-3.9108750000050234, -3.9119375108481824)" d="M 0 0 C 2.16 -2.16 5.662 -2.16 7.823 0 C 9.982 2.16 9.983 5.663 7.823 7.823 C 5.662 9.984 2.159 9.984 -0.001 7.824 C -2.161 5.663 -2.161 2.161 0 0" stroke-linecap="round" />
</g>
		<g transform="matrix(1.0987782907881312 0 0 -1.0987782907881314 -62.420276165724886 -62.42060579921204)"  >
<path style="stroke: none; stroke-width: 1; stroke-dasharray: none; stroke-linecap: butt; stroke-dashoffset: 0; stroke-linejoin: miter; stroke-miterlimit: 4; fill: rgb(21,91,131); fill-rule: nonzero; opacity: 1;"  paint-order="stroke"  transform=" translate(-7.304500000000001, -9.459500000000002)" d="M 0 0 L 20.914 -4.15 L 16.763 16.764 L 12.452 6.506 L 10.257 4.311 Z M 30.165 -8.574 L 25.337 -13.401 L -14.764999999999997 -5.442 L -15.555999999999997 2.37 L 5.531000000000002 11.232 L 14.394000000000002 32.32 L 22.206000000000003 31.528 z" stroke-linecap="round" />
</g>
		<g transform="matrix(1.0987782907881312 0 0 -1.0987782907881314 -71.51349060572579 -71.5138889247649)"  >
<path style="stroke: none; stroke-width: 1; stroke-dasharray: none; stroke-linecap: butt; stroke-dashoffset: 0; stroke-linejoin: miter; stroke-miterlimit: 4; fill: rgb(21,91,131); fill-rule: nonzero; opacity: 1;"  paint-order="stroke"  transform=" translate(3.910750000010042, 3.9121874891518154)" d="M 0 0 C -2.16 2.16 -5.662 2.16 -7.823 -0.001 C -9.983 -2.1599999999999997 -9.983 -5.664000000000001 -7.824000000000001 -7.823 C -5.662000000000001 -9.985 -2.1590000000000007 -9.984 0.0009999999999994458 -7.824000000000001 C 2.162 -5.664 2.162 -2.161 0 0" stroke-linecap="round" />
</g>
</g>
</g>
<g transform="matrix(1.9211538461538462 0 0 1.9211538461538462 638.7424194331984 592.1055603889423)" id="text-logo"  >
<g style=""  paint-order="stroke"   >
		<g transform="matrix(1 0 0 1 0 0)" id="text-logo-path-0"  >
<path style="stroke: none; stroke-width: 0; stroke-dasharray: none; stroke-linecap: butt; stroke-dashoffset: 0; stroke-linejoin: miter; stroke-miterlimit: 4; fill: rgb(19,93,135); fill-rule: nonzero; opacity: 1;"  paint-order="stroke"  transform=" translate(-134.665, 12.719999999999999)" d="M 14.06 -24.48 C 6.91 -24.48 1.06 -19.25 1.06 -12.05 C 1.06 -4.75 6.91 0.48 14.26 0.48 C 20.26 0.48 25.68 -3.07 27.36 -8.4 L 19.34 -8.4 C 18 -7.68 16.27 -7.3 14.26 -7.3 C 11.57 -7.3 9.36 -8.54 8.5 -10.27 L 27.26 -10.27 C 27.36 -10.85 27.41 -11.47 27.41 -12.05 C 27.41 -19.25 21.84 -24.48 14.06 -24.48 Z M 19.58 -14.4 L 8.93 -14.4 C 9.98 -15.79 11.95 -16.7 14.26 -16.7 C 16.56 -16.7 18.53 -15.79 19.58 -14.4 Z M 55.58 0 L 55.58 -35.04 L 48.86 -35.04 L 48.86 -21.41 C 46.94 -23.33 44.3 -24.48 40.99 -24.48 C 33.98 -24.48 29.76 -19.25 29.76 -12.05 C 29.76 -4.75 33.98 0.48 40.99 0.48 C 44.3 0.48 46.99 -0.72 48.86 -2.64 L 48.86 0 Z M 36.96 -12 C 36.96 -14.59 39.6 -16.7 42.91 -16.7 C 46.27 -16.7 48.86 -14.59 48.86 -12 C 48.86 -9.41 46.27 -7.3 42.91 -7.3 C 39.6 -7.3 36.96 -9.41 36.96 -12 Z M 73.82 -8.64 C 69.94 -8.64 66.86 -10.9 66.86 -13.68 L 66.86 -33.6 L 59.66 -33.6 L 59.66 -13.82 C 59.66 -5.52 65.95 0.48 73.78 0.48 C 81.65 0.48 87.98 -5.52 87.98 -13.82 L 87.98 -33.6 L 80.78 -33.6 L 80.78 -13.68 C 80.78 -10.9 77.66 -8.64 73.82 -8.64 Z M 98.78 -20.88 L 98.78 -24 L 92.06 -24 L 92.06 0 L 98.78 0 L 98.78 -12.62 C 98.78 -15.12 100.99 -16.7 103.92 -16.7 C 106.8 -16.7 109.01 -15.12 109.01 -12.62 L 109.01 0 L 115.73 0 L 115.73 -12.62 C 115.73 -15.12 117.94 -16.7 120.86 -16.7 C 123.74 -16.7 125.95 -15.12 125.95 -12.62 L 125.95 0 L 132.67 0 L 132.67 -14.74 C 132.67 -20.35 128.4 -24.48 122.59 -24.48 C 118.51 -24.48 115.97 -22.22 114.82 -18.96 C 113.28 -22.32 109.87 -24.48 105.65 -24.48 C 102.43 -24.48 100.18 -23.09 98.78 -20.88 Z M 148.56 -24.48 C 141.41 -24.48 135.55 -19.25 135.55 -12.05 C 135.55 -4.75 141.41 0.48 148.75 0.48 C 154.75 0.48 160.18 -3.07 161.86 -8.4 L 153.84 -8.4 C 152.5 -7.68 150.77 -7.3 148.75 -7.3 C 146.06 -7.3 143.86 -8.54 142.99 -10.27 L 161.76 -10.27 C 161.86 -10.85 161.9 -11.47 161.9 -12.05 C 161.9 -19.25 156.34 -24.48 148.56 -24.48 Z M 154.08 -14.4 L 143.42 -14.4 C 144.48 -15.79 146.45 -16.7 148.75 -16.7 C 151.06 -16.7 153.02 -15.79 154.08 -14.4 Z M 177.12 -24.48 C 169.97 -24.48 164.11 -19.25 164.11 -12.05 C 164.11 -4.75 169.97 0.48 177.31 0.48 C 183.31 0.48 188.74 -3.07 190.42 -8.4 L 182.4 -8.4 C 181.06 -7.68 179.33 -7.3 177.31 -7.3 C 174.62 -7.3 172.42 -8.54 171.55 -10.27 L 190.32 -10.27 C 190.42 -10.85 190.46 -11.47 190.46 -12.05 C 190.46 -19.25 184.9 -24.48 177.12 -24.48 Z M 182.64 -14.4 L 171.98 -14.4 C 173.04 -15.79 175.01 -16.7 177.31 -16.7 C 179.62 -16.7 181.58 -15.79 182.64 -14.4 Z M 192.19 -16.8 L 196.94 -16.8 L 196.94 -9.89 C 196.94 -3.7 198.34 0 206.54 0 L 209.71 0 L 209.71 -7.2 L 206.54 -7.2 C 204.38 -7.2 203.66 -8.02 203.66 -10.13 L 203.66 -16.8 L 209.71 -16.8 L 209.71 -24 L 203.66 -24 L 203.66 -30.24 L 196.94 -30.24 L 196.94 -24 L 192.19 -24 Z M 231.41 -3.12 L 231.41 0 L 238.13 0 L 238.13 -24 L 231.41 -24 L 231.41 -11.38 C 231.41 -8.88 228.91 -7.3 225.6 -7.3 C 222.38 -7.3 219.84 -8.88 219.84 -11.38 L 219.84 -24 L 213.12 -24 L 213.12 -9.26 C 213.12 -3.65 217.1 0.48 223.68 0.48 C 227.33 0.48 229.87 -0.91 231.41 -3.12 Z M 249.17 -21.41 L 249.17 -24 L 242.45 -24 L 242.45 9.6 L 249.17 9.6 L 249.17 -2.64 C 251.09 -0.67 253.73 0.48 257.04 0.48 C 264.05 0.48 268.27 -4.75 268.27 -12.05 C 268.27 -19.25 264.05 -24.48 257.04 -24.48 C 253.73 -24.48 250.99 -23.23 249.17 -21.41 Z M 249.17 -12 C 249.17 -14.59 251.76 -16.7 255.12 -16.7 C 258.43 -16.7 261.07 -14.59 261.07 -12 C 261.07 -9.41 258.43 -7.3 255.12 -7.3 C 251.76 -7.3 249.17 -9.41 249.17 -12 Z" stroke-linecap="round" />
</g>
</g>
</g>
<g transform="matrix(1.9211538461538462 0 0 1.9211538461538462 655.5424804998607 662.7105619720439)" id="tagline-111618aa-34ca-4db8-b583-5788a972ff65-logo"  >
<g style=""  paint-order="stroke"   >
		<g transform="matrix(1 0 0 1 5.684342e-14 0)" id="tagline-111618aa-34ca-4db8-b583-5788a972ff65-logo-path-0"  >
<path style="stroke: none; stroke-width: 0; stroke-dasharray: none; stroke-linecap: butt; stroke-dashoffset: 0; stroke-linejoin: miter; stroke-miterlimit: 4; fill: rgb(19,93,135); fill-rule: nonzero; opacity: 1;"  paint-order="stroke"  transform=" translate(-216.005, 8.049999999999999)" d="M 0 -16.1 L 5.06 0 L 9.43 0 L 12.42 -9.96 L 15.41 0 L 19.78 0 L 24.84 -16.1 L 21.16 -16.1 L 17.99 -5.98 L 14.95 -16.1 L 9.89 -16.1 L 6.85 -5.98 L 3.68 -16.1 Z M 29.6 -16.1 L 26.15 -16.1 L 26.15 0 L 29.6 0 L 29.6 -5.87 L 36.27 -5.87 L 36.27 0 L 39.72 0 L 39.72 -16.1 L 36.27 -16.1 L 36.27 -10.23 L 29.6 -10.23 Z M 54 -16.1 L 42.16 -16.1 L 42.16 0 L 54 0 L 54 -4.37 L 45.61 -4.37 L 45.61 -5.87 L 53.08 -5.87 L 53.08 -10.23 L 45.61 -10.23 L 45.61 -11.73 L 54 -11.73 Z M 63.43 -16.1 L 56.19 -16.1 L 56.19 0 L 59.64 0 L 59.64 -4.49 L 63.34 -4.49 L 66.33 0 L 70.01 0 L 66.49 -5.29 C 68.19 -6.28 69.32 -8.07 69.32 -10.3 C 69.32 -13.66 66.7 -16.1 63.43 -16.1 Z M 64.05 -8.86 L 59.64 -8.86 L 59.64 -11.73 L 64.05 -11.73 C 65.07 -11.73 65.87 -11.09 65.87 -10.3 C 65.87 -9.5 65.07 -8.86 64.05 -8.86 Z M 83.4 -16.1 L 71.55 -16.1 L 71.55 0 L 83.4 0 L 83.4 -4.37 L 75 -4.37 L 75 -5.87 L 82.48 -5.87 L 82.48 -10.23 L 75 -10.23 L 75 -11.73 L 83.4 -11.73 Z M 100.14 -16.1 L 94.05 -16.1 L 94.05 0 L 100.14 0 C 104.79 0 108.54 -3.24 108.54 -8.07 C 108.54 -12.86 104.79 -16.1 100.14 -16.1 Z M 100.14 -4.37 L 97.5 -4.37 L 97.5 -11.73 L 100.14 -11.73 C 102.88 -11.73 105.09 -10.21 105.09 -8.05 C 105.09 -5.89 102.88 -4.37 100.14 -4.37 Z M 117.55 -16.1 L 110.31 -16.1 L 110.31 0 L 113.76 0 L 113.76 -4.49 L 117.46 -4.49 L 120.45 0 L 124.13 0 L 120.61 -5.29 C 122.31 -6.28 123.44 -8.07 123.44 -10.3 C 123.44 -13.66 120.82 -16.1 117.55 -16.1 Z M 118.17 -8.86 L 113.76 -8.86 L 113.76 -11.73 L 118.17 -11.73 C 119.19 -11.73 119.99 -11.09 119.99 -10.3 C 119.99 -9.5 119.19 -8.86 118.17 -8.86 Z M 137.52 -16.1 L 125.67 -16.1 L 125.67 0 L 137.52 0 L 137.52 -4.37 L 129.12 -4.37 L 129.12 -5.87 L 136.6 -5.87 L 136.6 -10.23 L 129.12 -10.23 L 129.12 -11.73 L 137.52 -11.73 Z M 148.65 -16.1 L 144.28 -16.1 L 138.53 0 L 142.21 0 L 142.9 -1.96 L 150.03 -1.96 L 150.72 0 L 154.4 0 Z M 148.47 -6.33 L 144.46 -6.33 L 146.46 -11.91 Z M 161.21 -16.1 L 155.69 -16.1 L 155.69 0 L 159.14 0 L 159.14 -10.03 L 162.33 -2.99 L 167.16 -2.99 L 170.41 -10.07 L 170.41 0 L 173.86 0 L 173.86 -16.1 L 168.34 -16.1 L 164.75 -8.28 Z M 179.38 -5.06 L 175.74 -5.06 C 175.74 -2.42 177.79 0.23 182.64 0.23 C 186.14 0.23 189.29 -1.43 189.29 -5.08 C 189.29 -11.25 179.61 -9.2 179.61 -11.25 C 179.61 -11.75 180.64 -12.19 182.41 -12.19 C 184.23 -12.19 185.4 -11.75 185.4 -11.04 L 189.04 -11.04 C 188.9 -13.82 186.88 -16.33 182.51 -16.33 C 178.18 -16.33 176 -13.69 176 -11.06 C 176 -4.88 185.7 -6.85 185.7 -4.97 C 185.7 -4.28 184.07 -3.91 182.71 -3.91 C 181.13 -3.91 179.38 -4.35 179.38 -5.06 Z M 205.18 -16.1 L 199.66 -16.1 L 199.66 0 L 203.11 0 L 203.11 -10.03 L 206.31 -2.99 L 211.14 -2.99 L 214.38 -10.07 L 214.38 0 L 217.83 0 L 217.83 -16.1 L 212.31 -16.1 L 208.73 -8.28 Z M 232.14 -16.1 L 220.29 -16.1 L 220.29 0 L 232.14 0 L 232.14 -4.37 L 223.74 -4.37 L 223.74 -5.87 L 231.22 -5.87 L 231.22 -10.23 L 223.74 -10.23 L 223.74 -11.73 L 232.14 -11.73 Z M 246.17 -16.1 L 234.32 -16.1 L 234.32 0 L 246.17 0 L 246.17 -4.37 L 237.77 -4.37 L 237.77 -5.87 L 245.25 -5.87 L 245.25 -10.23 L 237.77 -10.23 L 237.77 -11.73 L 246.17 -11.73 Z M 260.68 -11.73 L 260.68 -16.1 L 247.34 -16.1 L 247.34 -11.73 L 252.29 -11.73 L 252.29 0 L 255.74 0 L 255.74 -11.73 Z M 276.67 -16.1 L 270.57 -16.1 L 270.57 0 L 276.67 0 C 281.31 0 285.06 -3.24 285.06 -8.07 C 285.06 -12.86 281.31 -16.1 276.67 -16.1 Z M 276.67 -4.37 L 274.02 -4.37 L 274.02 -11.73 L 276.67 -11.73 C 279.4 -11.73 281.61 -10.21 281.61 -8.05 C 281.61 -5.89 279.4 -4.37 276.67 -4.37 Z M 298.68 -16.1 L 286.83 -16.1 L 286.83 0 L 298.68 0 L 298.68 -4.37 L 290.28 -4.37 L 290.28 -5.87 L 297.76 -5.87 L 297.76 -10.23 L 290.28 -10.23 L 290.28 -11.73 L 298.68 -11.73 Z M 303.92 -5.06 L 300.29 -5.06 C 300.29 -2.42 302.33 0.23 307.19 0.23 C 310.68 0.23 313.83 -1.43 313.83 -5.08 C 313.83 -11.25 304.15 -9.2 304.15 -11.25 C 304.15 -11.75 305.19 -12.19 306.96 -12.19 C 308.77 -12.19 309.95 -11.75 309.95 -11.04 L 313.58 -11.04 C 313.44 -13.82 311.42 -16.33 307.05 -16.33 C 302.73 -16.33 300.54 -13.69 300.54 -11.06 C 300.54 -4.88 310.25 -6.85 310.25 -4.97 C 310.25 -4.28 308.61 -3.91 307.26 -3.91 C 305.67 -3.91 303.92 -4.35 303.92 -5.06 Z M 328.07 -11.73 L 328.07 -16.1 L 314.73 -16.1 L 314.73 -11.73 L 319.68 -11.73 L 319.68 0 L 323.13 0 L 323.13 -11.73 Z M 332.95 -16.1 L 329.5 -16.1 L 329.5 0 L 332.95 0 Z M 340.91 -16.1 L 335.39 -16.1 L 335.39 0 L 338.84 0 L 338.84 -10.07 L 343.44 0 L 348.96 0 L 348.96 -16.1 L 345.51 -16.1 L 345.51 -6.05 Z M 360.34 -16.1 L 355.97 -16.1 L 350.22 0 L 353.9 0 L 354.59 -1.96 L 361.72 -1.96 L 362.41 0 L 366.09 0 Z M 360.16 -6.33 L 356.15 -6.33 L 358.16 -11.91 Z M 377.8 -11.73 L 377.8 -16.1 L 364.46 -16.1 L 364.46 -11.73 L 369.4 -11.73 L 369.4 0 L 372.85 0 L 372.85 -11.73 Z M 382.67 -16.1 L 379.22 -16.1 L 379.22 0 L 382.67 0 Z M 392.84 0.23 C 397.49 0.23 401.23 -3.24 401.23 -8.07 C 401.23 -12.86 397.51 -16.33 392.84 -16.33 C 388.17 -16.33 384.44 -12.86 384.44 -8.07 C 384.44 -3.24 388.19 0.23 392.84 0.23 Z M 387.89 -8.05 C 387.89 -10.21 390.08 -11.96 392.84 -11.96 C 395.58 -11.96 397.78 -10.21 397.78 -8.05 C 397.78 -5.89 395.58 -4.14 392.84 -4.14 C 390.08 -4.14 387.89 -5.89 387.89 -8.05 Z M 408.55 -16.1 L 403.03 -16.1 L 403.03 0 L 406.48 0 L 406.48 -10.07 L 411.08 0 L 416.6 0 L 416.6 -16.1 L 413.15 -16.1 L 413.15 -6.05 Z M 422.1 -5.06 L 418.46 -5.06 C 418.46 -2.42 420.51 0.23 425.36 0.23 C 428.86 0.23 432.01 -1.43 432.01 -5.08 C 432.01 -11.25 422.33 -9.2 422.33 -11.25 C 422.33 -11.75 423.36 -12.19 425.13 -12.19 C 426.95 -12.19 428.12 -11.75 428.12 -11.04 L 431.76 -11.04 C 431.62 -13.82 429.59 -16.33 425.22 -16.33 C 420.9 -16.33 418.71 -13.69 418.71 -11.06 C 418.71 -4.88 428.42 -6.85 428.42 -4.97 C 428.42 -4.28 426.79 -3.91 425.43 -3.91 C 423.84 -3.91 422.1 -4.35 422.1 -5.06 Z" stroke-linecap="round" />
</g>
</g>
</g>
<g transform="matrix(0.3135082460231787 0 0 0.3135082460231787 639.1573886639676 310.33469277788436)" id="shape-fdd13c74-005b-4303-b754-b76aba1e7704"  >
<g style=""  paint-order="stroke"   >
		<g transform="matrix(1 0 0 1 -3.6185449999999975 -20.30382)" id="path-02"  >
<path style="stroke: none; stroke-width: 1; stroke-dasharray: none; stroke-linecap: butt; stroke-dashoffset: 0; stroke-linejoin: miter; stroke-miterlimit: 4; fill: rgb(22,94,136); fill-rule: nonzero; opacity: 1;"  paint-order="stroke"  transform=" translate(-121.381455, -104.69618)" d="M 235.91454 67.31796 C 215.07452 27.31335 173.22018 0 125 0 C 55.96655 0 0 55.96688 0 125 C 0 155.89156 11.20401 184.15639 29.77917 205.97478999999998 C 24.25757 207.18084 18.72256 208.32012999999998 13.174140000000001 209.39236 C 19.2586 209.04355999999999 25.343140000000002 208.53445 31.41418 207.85093 C 86.76422 201.64599 141.51121 181.35525 183.64694000000003 144.43282 C 206.28285000000002 124.2229 226.29194000000004 98.5848 237.21449 69.87792999999999 C 239.47941 63.96745999999999 241.34231 57.93657999999999 242.76291 51.78529999999999 C 240.69905 57.09243 238.4207 62.26573 235.91454 67.31796 z" stroke-linecap="round" />
</g>
		<g transform="matrix(1 0 0 1 33.85333 37.036294999999996)" id="path-01"  >
<path style="stroke: none; stroke-width: 1; stroke-dasharray: none; stroke-linecap: butt; stroke-dashoffset: 0; stroke-linejoin: miter; stroke-miterlimit: 4; fill: rgb(100,174,255); fill-rule: nonzero; opacity: 1;"  paint-order="stroke"  transform=" translate(-158.85333, -162.036295)" d="M 250 74.07259 C 248.82062 80.14371 247.34636 86.14809000000001 245.60413 92.08507 C 234.8424 128.9136 213.65392 162.64619 185.38918 188.52543 C 157.29866 214.44491 122.88247000000001 231.78695 86.73745000000001 244.03619 C 80.43851 246.18063 74.086 248.16411 67.70666 250 C 75.73442 248.88786 83.74876 247.38669 91.68276 245.49713 C 102.28366 248.43208 113.46092 250 124.99998 250 C 194.03343 250 249.99999 194.03378 249.99999 125 C 249.99999 115.5787 248.9546 106.41167 246.98454999999998 97.59308 C 248.60612999999998 89.84672 249.62469 81.99336 249.99999 74.0726 L 250 74.0726 z" stroke-linecap="round" />
</g>
</g>
</g>
</svg>